<?xml version="1.0" standalone="no"?>
<!DOCTYPE svg PUBLIC "-//W3C//DTD SVG 20010904//EN"
 "http://www.w3.org/TR/2001/REC-SVG-20010904/DTD/svg10.dtd">
<svg version="1.0" xmlns="http://www.w3.org/2000/svg"
 width="512.000000pt" height="512.000000pt" viewBox="0 0 512.000000 512.000000"
 preserveAspectRatio="xMidYMid meet">
<metadata>
Created by potrace 1.11, written by Peter Selinger 2001-2013
</metadata>
<g transform="translate(0.000000,512.000000) scale(0.100000,-0.100000)"
fill="#000000" stroke="none">
<path d="M3270 3353 c-120 -14 -242 -62 -330 -129 -107 -82 -216 -273 -246
-429 -33 -172 -21 -439 26 -573 55 -156 195 -329 313 -385 140 -67 369 -91
517 -53 265 67 426 254 465 539 l6 47 -204 0 -204 0 -12 -59 c-24 -124 -110
-186 -245 -179 -122 6 -181 53 -228 183 -17 48 -22 89 -26 208 -5 168 6 240
48 332 31 68 58 97 114 120 44 19 156 22 197 6 74 -28 130 -114 144 -218 l7
-53 204 0 204 0 -7 63 c-31 312 -198 510 -478 568 -83 17 -179 22 -265 12z"/>
<path d="M1103 2758 c4 -629 2 -613 67 -745 38 -77 99 -139 176 -180 90 -48
164 -63 306 -63 147 0 227 13 287 46 24 13 45 24 47 24 2 0 4 -11 4 -25 l0
-25 205 0 205 0 0 770 0 770 -215 0 -215 0 0 -533 0 -532 -25 -37 c-56 -83
-232 -124 -325 -76 -33 17 -51 35 -67 68 -23 44 -23 44 -23 577 l0 533 -216 0
-215 0 4 -572z"/>
</g>
</svg>
